<svg xmlns="http://www.w3.org/2000/svg" viewBox="-9469 -9919 190.241 55">
  <defs>
    <style>
      .cls-1 {
        fill: #085aa5;
        fill-rule: evenodd;
      }
    </style>
  </defs>
  <path id="Suzano" class="cls-1" d="M23.317,0c.316,0,.63.008.942.021v1.5c-.428-.027-.858-.043-1.293-.043-11.248,0-20.371,9.466-20.371,21.139s9.122,21.138,20.371,21.138c.435,0,.866-.016,1.293-.044v4.661c-.312.013-.626.022-.942.022C10.442,48.391,0,37.556,0,24.2S10.442,0,23.317,0Zm.5,2.652c.147,0,.293,0,.439.006V4.092c-.294-.017-.59-.027-.889-.027C14.888,4.065,8.011,11.2,8.011,20S14.889,35.942,23.37,35.942c.3,0,.595-.01.889-.027v4.41c-.146,0-.292.005-.439.005-10.025,0-18.156-8.436-18.156-18.838s8.13-18.84,18.156-18.84Zm-.177,2.853c.207,0,.412.005.616.016V6.674q-.293-.018-.59-.018A10.2,10.2,0,0,0,13.662,17.041,10.2,10.2,0,0,0,23.669,27.424c.2,0,.394-.007.59-.019v4.629c-.2.01-.409.016-.616.016a13.04,13.04,0,0,1-12.79-13.272A13.039,13.039,0,0,1,23.643,5.506h0ZM25.041,55c-.316,0-.629-.009-.942-.021v-1.5c.428.028.858.044,1.293.044,11.249,0,20.372-9.466,20.372-21.14S36.64,11.248,25.391,11.248c-.434,0-.865.016-1.293.044V6.631c.312-.013.626-.022.942-.022,12.875,0,23.317,10.834,23.317,24.195S37.916,55,25.041,55h0Zm-.5-2.653q-.221,0-.439-.006V50.907q.442.026.888.026c8.482,0,15.36-7.137,15.36-15.938s-6.878-15.937-15.36-15.937q-.447,0-.888.028v-4.41c.146,0,.292-.006.439-.006,10.025,0,18.156,8.436,18.156,18.839s-8.13,18.839-18.156,18.839h0Zm.176-2.853q-.309,0-.616-.016V48.326c.2.012.392.019.59.019a10.391,10.391,0,0,0,0-20.768c-.2,0-.394.007-.59.019V22.966c.2-.01.409-.016.616-.016A13.04,13.04,0,0,1,37.505,36.222,13.04,13.04,0,0,1,24.714,49.494Zm36.708-19.86a10,10,0,0,0,2.436,2.091,4.724,4.724,0,0,0,2.387.695,2.743,2.743,0,0,0,1.821-.6,1.873,1.873,0,0,0,.714-1.508,1.975,1.975,0,0,0-.615-1.561,7.844,7.844,0,0,0-2.789-1.13,9.134,9.134,0,0,1-4.213-2.091A4.9,4.9,0,0,1,59.928,22a6.228,6.228,0,0,1,1.948-4.747,7.046,7.046,0,0,1,5.045-1.834,11.105,11.105,0,0,1,3.183.449,10.374,10.374,0,0,1,2.846,1.367l-1.73,3.976A7.325,7.325,0,0,0,69.286,20a5.172,5.172,0,0,0-1.957-.406,2.6,2.6,0,0,0-1.622.477,1.478,1.478,0,0,0-.624,1.225,1.5,1.5,0,0,0,.548,1.22,5.893,5.893,0,0,0,2.108.874l.25.072a10.278,10.278,0,0,1,4.444,2,4.967,4.967,0,0,1,1.1,1.8,6.811,6.811,0,0,1,.374,2.317,6.719,6.719,0,0,1-2.119,5.186,7.978,7.978,0,0,1-5.65,1.962,10.037,10.037,0,0,1-3.858-.718,10.983,10.983,0,0,1-3.346-2.26l2.49-4.114h0ZM78.17,15.909h5.513v9.862c0,1.452.038,2.492.109,3.126a5.968,5.968,0,0,0,.379,1.583,2.285,2.285,0,0,0,1.106,1.187,4.746,4.746,0,0,0,3.843,0,2.353,2.353,0,0,0,1.111-1.187A5.94,5.94,0,0,0,90.61,28.9c.07-.634.108-1.674.108-3.126V15.909h5.5V26.633a21.817,21.817,0,0,1-.4,4.921,6.633,6.633,0,0,1-1.357,2.709,6.3,6.3,0,0,1-2.85,1.849,16.13,16.13,0,0,1-8.817,0,6.376,6.376,0,0,1-2.86-1.849,6.807,6.807,0,0,1-1.353-2.709,21.7,21.7,0,0,1-.407-4.921V15.909Zm39.354,20.279H99.6L109.836,20.3h-8.217V15.909h17.069L108.48,31.767h9.044v4.421h0Zm10.03-7.58h5.5l-2.067-6.69c-.061-.2-.152-.53-.26-.983s-.256-1.03-.43-1.745c-.118.5-.236.974-.355,1.428s-.232.885-.35,1.3l-2.036,6.69h0Zm-7.745,7.58,7-20.279h6.926l7.008,20.279h-5.5l-1.026-3.631h-7.854l-1.053,3.631h-5.5Zm24.158,0V15.909H149.3l7.658,10.43c.147.212.389.638.728,1.281s.7,1.4,1.112,2.293q-.164-1.262-.241-2.246c-.052-.652-.076-1.234-.076-1.745V15.909h5.3V36.188h-5.3l-7.66-10.474a12.137,12.137,0,0,1-.743-1.281c-.335-.643-.7-1.395-1.1-2.265q.163,1.277.241,2.259t.076,1.745V36.188Zm46.275-10.1a10.317,10.317,0,0,1-3.145,7.522,11.135,11.135,0,0,1-3.546,2.307,11.06,11.06,0,0,1-8.3,0,10.64,10.64,0,0,1-3.5-2.307,10.326,10.326,0,0,1-2.379-3.438,10.391,10.391,0,0,1,2.379-11.607,10.633,10.633,0,0,1,3.5-2.307,11.108,11.108,0,0,1,8.32,0,10.758,10.758,0,0,1,3.527,2.307,10.364,10.364,0,0,1,3.145,7.523h0Zm-10.832,5.957a4.871,4.871,0,0,0,3.8-1.688,6.2,6.2,0,0,0,1.5-4.269,6.161,6.161,0,0,0-1.522-4.256,5.081,5.081,0,0,0-7.584,0,6.187,6.187,0,0,0-1.5,4.26,6.219,6.219,0,0,0,1.479,4.279,4.866,4.866,0,0,0,3.825,1.678Z" transform="translate(-9469 -9919)"/>
</svg>
