<svg xmlns="http://www.w3.org/2000/svg" viewBox="-13504.7 -11088.4 21.304 28.7">
  <defs>
    <style>
      .cls-1 {
        fill: #fff;
      }
    </style>
  </defs>
  <path id="Path_4016" data-name="Path 4016" class="cls-1" d="M19.9,123.4,21,122a.6.6,0,0,0,.3-.6c0-1.1-2.6-1.3-4.5-1.4v-.5l2.6-2.6a2.618,2.618,0,0,0,1.7.5,2.973,2.973,0,0,0,2-.8c1-1,2.1-5,2.2-5.4a.9.9,0,0,0-.1-.5.764.764,0,0,0-.5-.2c-.5.1-4.5.9-5.6,1.8a2.9,2.9,0,0,0-.4,3.7l-1.9,1.9v-8.2a.5.5,0,0,0-1,0V115l-1.5-1.5a4.522,4.522,0,0,0-.5-5.4c-1.5-1.6-8-3.3-8.8-3.5a.9.9,0,0,0-.5.1.764.764,0,0,0-.2.5c.1.7,1.4,7.3,2.9,9a4.314,4.314,0,0,0,3.2,1.4,4.234,4.234,0,0,0,3-1.2l.1-.1,2.2,2.2v3.4c-1.9,0-4.5.3-4.5,1.4a.864.864,0,0,0,.3.6l1.1,1.4c-3.5.8-5.8,2.7-5.8,4.8,0,2.9,4.1,5.2,9.4,5.2s9.4-2.3,9.4-5.2C25.7,126,23.4,124.2,19.9,123.4Zm-.1-10.3c.5-.5,2.6-1.1,4.3-1.4-.4,1.6-1.1,3.7-1.7,4.2a2.106,2.106,0,0,1-1.3.5,1.929,1.929,0,0,1-1-.3l1.4-1.4a.483.483,0,0,0,0-.7.44.44,0,0,0-.5-.1v-1a.1.1,0,0,0-.2,0v1.2l-1.3,1.3A1.953,1.953,0,0,1,19.8,113.1Zm-7,.6a3.337,3.337,0,0,1-2.3.9A3.581,3.581,0,0,1,8,113.5c-1-1.1-2.1-5.3-2.5-7.7,2.3.6,6.5,1.9,7.5,3a3.351,3.351,0,0,1,.5,3.9l-2.2-2.2v-1.9a.1.1,0,0,0-.2,0v1.6l-.7-.7a.495.495,0,1,0-.7.7l1.5,1.5H9.1c-.1.3-.1.3-.1.4a.1.1,0,0,0,.1.1h2.4l1.3,1.5Zm-.3,7.7a10.069,10.069,0,0,1,3.3-.4v1.7a.5.5,0,1,0,1,0V121a10.069,10.069,0,0,1,3.3.4l-1.5,1.9H14Zm1.6,2.2h4.3v.1a.367.367,0,0,0,.1.3H14.1c0-.1,0-.2,0-.4Zm2.2,8.7c-4.5,0-8.4-1.9-8.4-4.2,0-1.8,2.4-3.4,5.8-4h5.1c3.4.6,5.8,2.2,5.8,4C24.7,130.4,20.8,132.3,16.3,132.3Z" transform="translate(-13509 -11193)"/>
</svg>
