<svg xmlns="http://www.w3.org/2000/svg" viewBox="-10486.7 -10689.4 17.814 24">
  <defs>
    <style>
      .cls-1 {
        fill: #fff;
      }
    </style>
  </defs>
  <path id="Path_4016" data-name="Path 4016" class="cls-1" d="M17.345,120.321l.92-1.171a.5.5,0,0,0,.251-.5c0-.92-2.174-1.087-3.763-1.171v-.418l2.174-2.174a2.189,2.189,0,0,0,1.422.418,2.486,2.486,0,0,0,1.672-.669c.836-.836,1.756-4.181,1.84-4.516a.754.754,0,0,0-.084-.418.639.639,0,0,0-.418-.167c-.418.084-3.763.753-4.683,1.505a2.426,2.426,0,0,0-.334,3.094l-1.589,1.589v-6.857a.418.418,0,1,0-.836,0V113.3l-1.254-1.254a3.782,3.782,0,0,0-.418-4.516c-1.254-1.338-6.69-2.76-7.359-2.927a.754.754,0,0,0-.418.084.639.639,0,0,0-.167.418c.084.585,1.171,6.1,2.425,7.526A3.607,3.607,0,0,0,9.4,113.8a3.541,3.541,0,0,0,2.509-1l.084-.084,1.84,1.84v2.843c-1.589,0-3.763.251-3.763,1.171a.723.723,0,0,0,.251.5l.92,1.171c-2.927.669-4.85,2.258-4.85,4.014,0,2.425,3.429,4.348,7.861,4.348s7.861-1.923,7.861-4.348C22.2,122.5,20.272,120.99,17.345,120.321Zm-.084-8.613a9.918,9.918,0,0,1,3.6-1.171c-.334,1.338-.92,3.094-1.422,3.512a1.761,1.761,0,0,1-1.087.418,1.613,1.613,0,0,1-.836-.251l1.171-1.171a.4.4,0,0,0,0-.585.368.368,0,0,0-.418-.084v-.836a.084.084,0,1,0-.167,0v1l-1.087,1.087A1.633,1.633,0,0,1,17.262,111.708Zm-5.854.5a2.791,2.791,0,0,1-1.923.753,2.994,2.994,0,0,1-2.091-.92c-.836-.92-1.756-4.432-2.091-6.439,1.923.5,5.436,1.589,6.272,2.509a2.8,2.8,0,0,1,.418,3.261l-1.84-1.84v-1.589a.084.084,0,1,0-.167,0v1.338L9.4,108.7a.414.414,0,0,0-.585.585l1.254,1.254H8.314c-.084.251-.084.251-.084.334a.082.082,0,0,0,.084.084h2.007l1.087,1.254Zm-.251,6.439a8.42,8.42,0,0,1,2.76-.334v1.422a.418.418,0,1,0,.836,0v-1.422a8.42,8.42,0,0,1,2.76.334l-1.254,1.589H12.411Zm1.338,1.84h3.6v.084a.307.307,0,0,0,.084.251H12.5c0-.084,0-.167,0-.334Zm1.84,7.275c-3.763,0-7.024-1.589-7.024-3.512,0-1.505,2.007-2.843,4.85-3.345h4.265c2.843.5,4.85,1.84,4.85,3.345C21.359,126.175,18.1,127.764,14.335,127.764Z" transform="translate(-10491 -10794)"/>
</svg>
