<svg xmlns="http://www.w3.org/2000/svg" viewBox="-13845.6 -11089 29.199 29.2">
  <defs>
    <style>
      .cls-1 {
        fill: #fff;
      }
    </style>
  </defs>
  <g id="Group_3456" data-name="Group 3456" transform="translate(-13875 -12757)">
    <path id="Path_3050" data-name="Path 3050" class="cls-1" d="M19.7,20.2a5.927,5.927,0,0,1-3.3,1.4c-.3,0-.4.2-.4.5v1.8H14.6V22.2a.472.472,0,0,0-.5-.5,14.6,14.6,0,0,1-4.5-1V18a15.546,15.546,0,0,0,2.3.8,11.753,11.753,0,0,0,2.9.5,3.689,3.689,0,0,0,1.7-.3,1.269,1.269,0,0,0,.7-1.3,1.606,1.606,0,0,0-.5-1.1c-.3-.2-.7-.4-1.2-.7-.5-.2-1.2-.5-2.1-.8a7.139,7.139,0,0,1-2.3-1.2,5.263,5.263,0,0,1-1.2-1.4,4.883,4.883,0,0,1-.4-1.9A3.315,3.315,0,0,1,10.6,8,5.3,5.3,0,0,1,14,6.8a.472.472,0,0,0,.5-.5v-1h1.4V6.4a.472.472,0,0,0,.5.5,15.958,15.958,0,0,1,4.1.9l-1,2.4a11.293,11.293,0,0,0-4.1-.9,3.506,3.506,0,0,0-1.6.3,1.149,1.149,0,0,0-.6,1.1,1.528,1.528,0,0,0,.4,1,7.174,7.174,0,0,0,1.1.7,13.054,13.054,0,0,0,1.9.7,8.982,8.982,0,0,1,3.3,1.8,3.486,3.486,0,0,1,.9,2.5.5.5,0,0,0,1,0,4.378,4.378,0,0,0-1.2-3.2,9.737,9.737,0,0,0-3.7-2.1c-.8-.3-1.4-.5-1.8-.7a2.134,2.134,0,0,1-.8-.5c-.1-.1-.1-.1-.1-.3,0-.1,0-.2.1-.2a2.653,2.653,0,0,1,1.1-.2,10.918,10.918,0,0,1,4.2,1.1.3.3,0,0,0,.4,0l.3-.3,1.4-3.3a.517.517,0,0,0-.3-.7A18.033,18.033,0,0,0,17,5.8v-1a.472.472,0,0,0-.5-.5H14.1a.472.472,0,0,0-.5.5V6A7.367,7.367,0,0,0,10,7.4a4.441,4.441,0,0,0-1.4,3.4,5.214,5.214,0,0,0,.5,2.3,4.731,4.731,0,0,0,1.5,1.7,9.672,9.672,0,0,0,2.5,1.3c.9.3,1.6.6,2.1.8a8.12,8.12,0,0,1,1,.5.367.367,0,0,1,.1.3c0,.2-.1.3-.2.3a2.533,2.533,0,0,1-1.2.2,9.786,9.786,0,0,1-2.7-.4,24.884,24.884,0,0,1-2.9-1.1.454.454,0,0,0-.5,0,.4.4,0,0,0-.2.4V21a.55.55,0,0,0,.3.5,18.349,18.349,0,0,0,4.6,1.2v1.7a.472.472,0,0,0,.5.5h2.4a.472.472,0,0,0,.5-.5V22.6A6.025,6.025,0,0,0,20.4,21a.483.483,0,0,0,0-.7A.428.428,0,0,0,19.7,20.2Z" transform="translate(29 1668)"/>
    <path id="Path_3051" data-name="Path 3051" class="cls-1" d="M22.3,18.7H19.4a.4.4,0,0,0,0,.8h2.9a.4.4,0,1,0,0-.8Z" transform="translate(29 1668)"/>
    <path id="Path_3052" data-name="Path 3052" class="cls-1" d="M15,0A14.6,14.6,0,1,0,29.6,14.6,14.617,14.617,0,0,0,15,0Zm0,28.1A13.614,13.614,0,0,1,1.4,14.5,13.6,13.6,0,1,1,15,28.1Z" transform="translate(29 1668)"/>
  </g>
</svg>
