<svg xmlns="http://www.w3.org/2000/svg" viewBox="-10417.1 -10691 14.071 24">
  <defs>
    <style>
      .cls-1 {
        fill: #fff;
      }
    </style>
  </defs>
  <g id="Group_3509" data-name="Group 3509" transform="translate(-11427 -12736)">
    <path id="Path_3048" data-name="Path 3048" class="cls-1" d="M17.975,217.677l-.6.6a1.041,1.041,0,0,0-.95-.691H12.45a.958.958,0,0,0-.95.95v3.971a.958.958,0,0,0,.95.95h3.971a.958.958,0,0,0,.95-.95V219.4l1.209-1.209a.417.417,0,0,0,0-.6A.532.532,0,0,0,17.975,217.677ZM17.2,222.6a.774.774,0,0,1-.777.777H12.45a.774.774,0,0,1-.777-.777v-3.971a.774.774,0,0,1,.777-.777h3.971a.667.667,0,0,1,.691.6l-2.935,2.935-.95-.95a.427.427,0,0,0-.6.6l1.209,1.209a.449.449,0,0,0,.345.173.345.345,0,0,0,.345-.173l2.676-2.676V222.6Z" transform="translate(1002.371 1838.287)"/>
    <path id="Path_3049" data-name="Path 3049" class="cls-1" d="M18.555,208.367H16.569v-.95H14.842a1.81,1.81,0,0,0,.345-.95,1.468,1.468,0,0,0-2.935,0,1.3,1.3,0,0,0,.345.95H10.871v.95H9.317A2.47,2.47,0,0,0,6.9,210.784v15.8A2.47,2.47,0,0,0,9.317,229h9.237a2.47,2.47,0,0,0,2.417-2.417V210.7A2.4,2.4,0,0,0,18.555,208.367Zm-4.835-2.59a.691.691,0,1,1-.691.691A.681.681,0,0,1,13.72,205.777Zm6.388,20.806a1.547,1.547,0,0,1-1.554,1.554H9.317a1.547,1.547,0,0,1-1.554-1.554V210.7a1.547,1.547,0,0,1,1.554-1.554h1.554v.777h5.7v-.777h1.986a1.547,1.547,0,0,1,1.554,1.554v15.885Z" transform="translate(1003 1840)"/>
  </g>
</svg>
