<svg xmlns="http://www.w3.org/2000/svg" viewBox="-10562 -10480 24 24">
  <defs>
    <style>
      .cls-1 {
        fill: #fff;
      }
    </style>
  </defs>
  <g id="Group_3461" data-name="Group 3461" transform="translate(9138 1325)">
    <path id="Path_3032" data-name="Path 3032" class="cls-1" d="M21.768,58.821H18.1V55.153A2.144,2.144,0,0,0,15.947,53H2.153A2.144,2.144,0,0,0,0,55.153V69.027A2.144,2.144,0,0,0,2.153,71.18H5.821v3.668A2.144,2.144,0,0,0,7.974,77H21.847A2.144,2.144,0,0,0,24,74.847V60.974A2.267,2.267,0,0,0,21.768,58.821ZM2.153,70.382A1.344,1.344,0,0,1,.8,69.027V55.233a1.344,1.344,0,0,1,1.355-1.355H16.027a1.344,1.344,0,0,1,1.355,1.355V58.9H7.894a2.144,2.144,0,0,0-2.153,2.153v9.409H2.153Zm20.97,4.465A1.344,1.344,0,0,1,21.768,76.2H7.894a1.344,1.344,0,0,1-1.355-1.355V60.974a1.344,1.344,0,0,1,1.355-1.355H21.768a1.344,1.344,0,0,1,1.356,1.355V74.847Z" transform="translate(-19700 -11858)"/>
    <path id="Path_3033" data-name="Path 3033" class="cls-1" d="M22.743,65.5H11.9a.4.4,0,0,0,0,.8H22.743a.377.377,0,0,0,.4-.4A.427.427,0,0,0,22.743,65.5Z" transform="translate(-19702.33 -11860.533)"/>
    <path id="Path_3034" data-name="Path 3034" class="cls-1" d="M22.743,68.6H11.9a.4.4,0,0,0,0,.8H22.743a.377.377,0,0,0,.4-.4A.427.427,0,0,0,22.743,68.6Z" transform="translate(-19702.33 -11861.161)"/>
    <path id="Path_3035" data-name="Path 3035" class="cls-1" d="M22.743,71.8H11.9a.4.4,0,0,0,0,.8H22.743a.4.4,0,0,0,0-.8Z" transform="translate(-19702.33 -11861.81)"/>
    <path id="Path_3036" data-name="Path 3036" class="cls-1" d="M22.743,74.9H11.9a.4.4,0,0,0,0,.8H22.743a.4.4,0,0,0,0-.8Z" transform="translate(-19702.33 -11862.438)"/>
    <path id="Path_3037" data-name="Path 3037" class="cls-1" d="M18.038,78H11.9a.4.4,0,0,0,0,.8h6.14a.4.4,0,0,0,0-.8Z" transform="translate(-19702.33 -11863.066)"/>
  </g>
</svg>
