<svg xmlns="http://www.w3.org/2000/svg" viewBox="-10420.654 -10478.5 23.762 24">
  <defs>
    <style>
      .cls-1 {
        fill: #fff;
      }
    </style>
  </defs>
  <path id="Path_4044" data-name="Path 4044" class="cls-1" d="M24.167,278.77l-7.708-7.708,2.8-2.8L22.5,267.3l1.4-3.766-1.489-1.489-3.766,1.4-.964,3.153-2.891,2.89-1.226-1.226h0c.7-2.19.613-5.168-1.139-6.92A6.28,6.28,0,0,0,7.875,259.5a6.775,6.775,0,0,0-2.978.7l-.526.263L8.4,264.493a.953.953,0,0,1,0,1.314l-.613.613a1.066,1.066,0,0,1-1.4,0l-4.029-4.029-.263.526a6.373,6.373,0,0,0,1.139,7.533,5.928,5.928,0,0,0,4.2,1.489,9.767,9.767,0,0,0,2.715-.438h0l1.226,1.226-.7.7a2.379,2.379,0,0,0-1.489-.526,1.783,1.783,0,0,0-1.314.526L2.882,278.42a2.21,2.21,0,0,0-.526,1.489,3,3,0,0,0,.788,1.577l1.226,1.226a2.478,2.478,0,0,0,1.752.788,1.783,1.783,0,0,0,1.314-.526l4.993-4.993a2.152,2.152,0,0,0-.088-2.891l.7-.7,7.708,7.708a2.852,2.852,0,0,0,1.839,1.051h0a1.542,1.542,0,0,0,1.139-.526l.788-.788C25.831,280.522,24.6,279.208,24.167,278.77Zm-13.226-7.883-.175-.175-.175-.263-.35.088a9.768,9.768,0,0,1-2.715.438,4.992,4.992,0,0,1-3.591-1.226,5.434,5.434,0,0,1-1.226-5.869l3.153,3.153a1.783,1.783,0,0,0,1.314.526,1.783,1.783,0,0,0,1.314-.526l.613-.613a1.9,1.9,0,0,0,0-2.628l-3.153-3.153a5.139,5.139,0,0,1,2.015-.35,5.88,5.88,0,0,1,3.942,1.577c1.577,1.577,1.489,4.292.788,6.219l-.088.35.263.175.175.175,1.226,1.226-2.015,2.015Zm-7.533,8.934a1.071,1.071,0,0,1,.263-.788l4.993-4.993a1,1,0,0,1,.7-.263,2.062,2.062,0,0,1,.7.175l-6.394,6.394A.624.624,0,0,1,3.408,279.821Zm.526,1.051c-.088-.088-.175-.175-.175-.263l6.482-6.482c.088.088.175.088.263.175l.613.613-6.569,6.569Zm1.226,1.139-.438-.438,6.482-6.482.438.438c.088.088.175.263.263.35L5.51,282.274C5.335,282.274,5.247,282.186,5.16,282.011Zm6.745-4.642-4.993,4.993a1,1,0,0,1-.7.263,1.111,1.111,0,0,1-.526-.088l6.307-6.307A1.077,1.077,0,0,1,11.9,277.369Zm.613-3.591-.7.7-.175-.175-.175-.175,2.1-2.1L15.5,270.1h0l3.328-3.328-.175-.175.788-2.54L22.24,263l.613.613-1.051,2.8-2.54.788-.175-.175-3.328,3.328Zm2.54-1.314,7.708,7.708-.613.613-7.708-7.708Zm8.934,8.672-.788.788a.757.757,0,0,1-.526.263h0c-.35,0-.876-.438-1.226-.788l-7.708-7.708.35-.35.175-.175,7.8,7.8h.175l.788-.788V280l-7.8-7.8.613-.613,7.708,7.708C24.517,280.434,24.342,280.785,23.992,281.135Z" transform="translate(-10422 -10738)"/>
</svg>
