<svg xmlns="http://www.w3.org/2000/svg" viewBox="0 0 35 35"><title>logo-clients</title><g id="Layer_2" data-name="Layer 2"><path d="M35,35H0V0H35ZM7.93,20.35a.79.79,0,0,0,0-.19.23.23,0,0,0-.07-.11.17.17,0,0,0-.1,0H5.32v-6.1a.16.16,0,0,0,0-.11.27.27,0,0,0-.13-.08l-.23,0-.37,0-.37,0-.24,0a.27.27,0,0,0-.13.08.16.16,0,0,0,0,.11V20.8a.47.47,0,0,0,.13.37.48.48,0,0,0,.33.11H7.71a.16.16,0,0,0,.1,0,.26.26,0,0,0,.07-.11.89.89,0,0,0,0-.2,3,3,0,0,0,0-.59Zm7.31-4.65a3.06,3.06,0,0,0-.67-1.2,2.67,2.67,0,0,0-1.1-.7,4.64,4.64,0,0,0-1.52-.23,4.22,4.22,0,0,0-1.58.28,3,3,0,0,0-1.15.79,3.38,3.38,0,0,0-.7,1.25,5.44,5.44,0,0,0-.23,1.66,6.07,6.07,0,0,0,.22,1.73,3,3,0,0,0,.66,1.21,2.68,2.68,0,0,0,1.1.71,4.66,4.66,0,0,0,1.54.23,4.24,4.24,0,0,0,1.58-.27,3,3,0,0,0,1.15-.79,3.4,3.4,0,0,0,.7-1.26,5.61,5.61,0,0,0,.23-1.69A5.76,5.76,0,0,0,15.24,15.7Zm-1.49,2.82a2.42,2.42,0,0,1-.33.85,1.7,1.7,0,0,1-.62.57,1.94,1.94,0,0,1-.95.21,2.13,2.13,0,0,1-.94-.18,1.45,1.45,0,0,1-.6-.54,2.4,2.4,0,0,1-.32-.85,6,6,0,0,1-.09-1.12,5.09,5.09,0,0,1,.1-1,2.36,2.36,0,0,1,.33-.83,1.75,1.75,0,0,1,.62-.57,1.92,1.92,0,0,1,.95-.21,2.06,2.06,0,0,1,.94.19,1.52,1.52,0,0,1,.6.54,2.34,2.34,0,0,1,.32.84,5.79,5.79,0,0,1,.09,1.09A5.24,5.24,0,0,1,13.75,18.52Zm9.06-4.08a.49.49,0,0,0-.11-.23,1.26,1.26,0,0,0-.28-.19,2.77,2.77,0,0,0-.5-.21,5.06,5.06,0,0,0-.71-.16,5.47,5.47,0,0,0-.9-.07,4.57,4.57,0,0,0-1.63.28,3.45,3.45,0,0,0-1.25.79,3.54,3.54,0,0,0-.8,1.26,4.69,4.69,0,0,0-.28,1.67,4.63,4.63,0,0,0,.26,1.61,3.19,3.19,0,0,0,2,2,4.74,4.74,0,0,0,1.63.26l.62,0q.31,0,.61-.09l.58-.14.47-.16a.44.44,0,0,0,.25-.21.72.72,0,0,0,.06-.31v-3a.68.68,0,0,0,0-.21.44.44,0,0,0-.08-.16.36.36,0,0,0-.13-.1.41.41,0,0,0-.17,0H19.85a.15.15,0,0,0-.09,0,.25.25,0,0,0-.07.1.68.68,0,0,0,0,.18,2.16,2.16,0,0,0,0,.28,1.21,1.21,0,0,0,.06.45q.06.13.16.13h1.44V19.9a1.87,1.87,0,0,1-.47.18,2.24,2.24,0,0,1-.51.06,2.64,2.64,0,0,1-1-.17,2,2,0,0,1-.75-.5,2.32,2.32,0,0,1-.48-.83,3.47,3.47,0,0,1-.17-1.15,3.28,3.28,0,0,1,.17-1.08,2.4,2.4,0,0,1,.49-.84,2.16,2.16,0,0,1,.76-.54,2.51,2.51,0,0,1,1-.19,3.48,3.48,0,0,1,.91.11,4.85,4.85,0,0,1,.67.23,3.66,3.66,0,0,1,.45.23.57.57,0,0,0,.25.11.14.14,0,0,0,.09,0,.22.22,0,0,0,.06-.1.92.92,0,0,0,0-.2,2.52,2.52,0,0,0,0-.29A2.07,2.07,0,0,0,22.8,14.44ZM31,15.7a3.06,3.06,0,0,0-.67-1.2,2.67,2.67,0,0,0-1.1-.7,4.64,4.64,0,0,0-1.52-.23,4.22,4.22,0,0,0-1.58.28,3,3,0,0,0-1.15.79,3.38,3.38,0,0,0-.7,1.25A5.44,5.44,0,0,0,24,17.55a6.07,6.07,0,0,0,.22,1.73,3,3,0,0,0,.66,1.21,2.68,2.68,0,0,0,1.1.71,4.66,4.66,0,0,0,1.54.23,4.24,4.24,0,0,0,1.58-.27,3,3,0,0,0,1.15-.79A3.4,3.4,0,0,0,31,19.1a5.61,5.61,0,0,0,.23-1.69A5.76,5.76,0,0,0,31,15.7Zm-1.49,2.82a2.42,2.42,0,0,1-.33.85,1.7,1.7,0,0,1-.62.57,1.94,1.94,0,0,1-.95.21,2.13,2.13,0,0,1-.94-.18,1.45,1.45,0,0,1-.6-.54,2.4,2.4,0,0,1-.32-.85,6,6,0,0,1-.09-1.12,5.09,5.09,0,0,1,.1-1,2.36,2.36,0,0,1,.33-.83,1.75,1.75,0,0,1,.62-.57,1.92,1.92,0,0,1,.95-.21,2.06,2.06,0,0,1,.94.19,1.52,1.52,0,0,1,.6.54,2.34,2.34,0,0,1,.32.84,5.79,5.79,0,0,1,.09,1.09A5.24,5.24,0,0,1,29.51,18.52Z"/></g></svg>