<svg xmlns="http://www.w3.org/2000/svg" xmlns:xlink="http://www.w3.org/1999/xlink" viewBox="0 0 97 35"><defs><style>.cls-1{fill:none;}.cls-2{clip-path:url(#clip-path);}.cls-3{fill:url(#linear-gradient);}.cls-4{fill:#007f3e;}</style><clipPath id="clip-path"><path class="cls-1" d="M9.32,33.9c1,.26,2.06.39,2.15-1.57a17.28,17.28,0,0,0-6.24-13l-.38.52L3.77,17.39l2.63.27L6,18.21a18.65,18.65,0,0,1,5.47,7.49V23.33A17.17,17.17,0,0,0,8,12.87l-.49.42L7,10.69l2.5.87L9,12a18.58,18.58,0,0,1,2.51,4.4V8.46h-.66l1.32-2.29,1.32,2.29H12.8v7.93A18.63,18.63,0,0,1,15.31,12l-.5-.43,2.5-.87-.5,2.6-.49-.42A17.17,17.17,0,0,0,12.8,23.33V25.7a18.65,18.65,0,0,1,5.47-7.49l-.39-.54,2.63-.27-1.08,2.42-.38-.52a17.29,17.29,0,0,0-6.25,13.19c.09,1.68.8,1.79,2.15,1.42,15-4.08,10.25-23.13-2.82-33.9C-.93,10.77-5.72,29.82,9.32,33.9"/></clipPath><linearGradient id="linear-gradient" x1="-2267.84" y1="331.85" x2="-2267.47" y2="331.85" gradientTransform="matrix(0, 75.35, 75.35, 0, -24992.8, 170888.55)" gradientUnits="userSpaceOnUse"><stop offset="0" stop-color="#a6ce39"/><stop offset="0.1" stop-color="#a6ce39"/><stop offset="0.9" stop-color="#007f3e"/><stop offset="1" stop-color="#007f3e"/></linearGradient></defs><title>logo-mvisia</title><g id="Layer_2" data-name="Layer 2"><g class="cls-2"><rect class="cls-3" x="-12.63" y="-7.58" width="49.46" height="49.46" transform="translate(-8.58 13.58) rotate(-45)"/></g><path class="cls-4" d="M86.05,28.5H82.62l5.45-16h3.71l5.44,16H93.78l-3-9.54q-.25-.84-.52-2c-.18-.75-.29-1.27-.33-1.56A28.27,28.27,0,0,1,89.09,19Z"/><path class="cls-4" d="M34.6,28.5,30.74,15.92h-.1q.21,3.84.21,5.12V28.5h-3v-16h4.63l3.79,12.26h.07l4-12.26h4.63v16H41.78V20.91q0-.54,0-1.24t.15-3.73h-.1L37.71,28.5Z"/><path class="cls-4" d="M56.93,12.47h3.43l-5.45,16H51.2l-5.44-16H49.2l3,9.54q.25.84.52,2c.18.75.29,1.27.33,1.56A28.12,28.12,0,0,1,53.89,22Z"/><rect class="cls-4" x="61.17" y="12.47" width="3.4" height="16.03"/><path class="cls-4" d="M76.86,24a4.14,4.14,0,0,1-1.56,3.42A6.79,6.79,0,0,1,71,28.72a10.2,10.2,0,0,1-4.54-1V24.6a18.84,18.84,0,0,0,2.75,1,8.12,8.12,0,0,0,2.06.29,2.93,2.93,0,0,0,1.72-.43,1.47,1.47,0,0,0,.6-1.27,1.4,1.4,0,0,0-.26-.84,2.94,2.94,0,0,0-.77-.71,20,20,0,0,0-2.08-1.09,9.74,9.74,0,0,1-2.2-1.33A5,5,0,0,1,67,18.78a4.23,4.23,0,0,1-.44-2A4.14,4.14,0,0,1,68,13.46a6,6,0,0,1,4-1.22,9.48,9.48,0,0,1,2.38.29,16.62,16.62,0,0,1,2.37.83L75.69,16a16,16,0,0,0-2.12-.73,6.83,6.83,0,0,0-1.65-.21,2.18,2.18,0,0,0-1.48.45,1.48,1.48,0,0,0-.52,1.17,1.46,1.46,0,0,0,.21.78,2.28,2.28,0,0,0,.66.65A20.34,20.34,0,0,0,73,19.25,8.58,8.58,0,0,1,76,21.4,4.21,4.21,0,0,1,76.86,24"/><rect class="cls-4" x="78.57" y="12.47" width="3.4" height="16.03"/><path class="cls-4" d="M29.24,34.11l-.77-2.21h0c0,.33,0,.63,0,.92v1.28H28.1V31.47h.61l.73,2.1h0l.76-2.1h.61v2.64H30.4V32.81c0-.13,0-.3,0-.51s0-.34,0-.38h0l-.79,2.2Z"/><path class="cls-4" d="M32.6,34.11l-.08-.28h0a.83.83,0,0,1-.29.25.94.94,0,0,1-.38.07.63.63,0,0,1-.46-.16.59.59,0,0,1-.17-.45.53.53,0,0,1,.23-.47,1.31,1.31,0,0,1,.7-.17h.34v-.11a.4.4,0,0,0-.09-.29.36.36,0,0,0-.28-.09,1,1,0,0,0-.29,0l-.27.11-.14-.3a1.5,1.5,0,0,1,.36-.13,1.6,1.6,0,0,1,.36,0,.87.87,0,0,1,.58.17.66.66,0,0,1,.19.52v1.35ZM32,33.82a.53.53,0,0,0,.37-.13.47.47,0,0,0,.14-.36v-.17h-.26a.88.88,0,0,0-.44.1.3.3,0,0,0-.14.27.27.27,0,0,0,.08.21.34.34,0,0,0,.24.07m-.13-2v0l.21-.28.17-.27h.49v0a3.59,3.59,0,0,1-.28.28,3.74,3.74,0,0,1-.32.27Z"/><path class="cls-4" d="M34.06,34.15a.69.69,0,0,1-.58-.27,1.21,1.21,0,0,1-.21-.76,1.22,1.22,0,0,1,.21-.76.7.7,0,0,1,.59-.27.8.8,0,0,1,.34.07.71.71,0,0,1,.27.23h0l0-.26h.35V35h-.43v-.85c0-.05,0-.11,0-.17v-.14h0a.65.65,0,0,1-.6.3m.12-.34a.45.45,0,0,0,.38-.15.77.77,0,0,0,.12-.47v-.07a.92.92,0,0,0-.12-.53.45.45,0,0,0-.39-.16.39.39,0,0,0-.35.18.93.93,0,0,0-.12.52q0,.68.47.68"/><path class="cls-4" d="M37,34.11l-.06-.26h0a.61.61,0,0,1-.25.22.83.83,0,0,1-.37.08.74.74,0,0,1-.54-.18.75.75,0,0,1-.18-.55v-1.3H36v1.23a.53.53,0,0,0,.09.34.35.35,0,0,0,.29.12.47.47,0,0,0,.39-.16.89.89,0,0,0,.12-.54v-1h.43v2Z"/><path class="cls-4" d="M37.79,31.59a.24.24,0,0,1,.06-.18.24.24,0,0,1,.18-.06.21.21,0,0,1,.24.24.23.23,0,0,1-.06.17.23.23,0,0,1-.17.06.24.24,0,0,1-.18-.06.23.23,0,0,1-.06-.17m.45,2.53h-.43v-2h.43Z"/><path class="cls-4" d="M40.49,34.11h-.43V32.88a.54.54,0,0,0-.09-.35.36.36,0,0,0-.3-.11.47.47,0,0,0-.39.16.87.87,0,0,0-.13.53v1h-.42v-2h.33l.06.26h0a.6.6,0,0,1,.26-.22.88.88,0,0,1,.37-.08.64.64,0,0,1,.72.73Z"/><path class="cls-4" d="M42.22,34.11l-.08-.28h0a.83.83,0,0,1-.29.25.94.94,0,0,1-.38.07A.63.63,0,0,1,41,34a.6.6,0,0,1-.17-.45.53.53,0,0,1,.23-.47,1.31,1.31,0,0,1,.7-.17h.34v-.11A.4.4,0,0,0,42,32.5a.37.37,0,0,0-.28-.09,1,1,0,0,0-.29,0l-.27.11-.14-.3a1.49,1.49,0,0,1,.35-.13,1.6,1.6,0,0,1,.36,0,.87.87,0,0,1,.58.17.66.66,0,0,1,.19.52v1.35Zm-.63-.29a.53.53,0,0,0,.37-.13.47.47,0,0,0,.14-.36v-.17h-.26a.88.88,0,0,0-.44.1.3.3,0,0,0-.14.27.27.27,0,0,0,.08.21.34.34,0,0,0,.24.07"/><path class="cls-4" d="M44.35,33.54a.52.52,0,0,1-.21.45,1,1,0,0,1-.61.16,1.45,1.45,0,0,1-.64-.12v-.37a1.57,1.57,0,0,0,.66.16c.26,0,.39-.08.39-.24a.19.19,0,0,0,0-.13.57.57,0,0,0-.14-.1l-.28-.12A1.26,1.26,0,0,1,43,33a.5.5,0,0,1-.12-.35.45.45,0,0,1,.21-.4,1,1,0,0,1,.56-.14,1.6,1.6,0,0,1,.67.14l-.14.32a1.51,1.51,0,0,0-.54-.13c-.22,0-.34.06-.34.19a.19.19,0,0,0,.09.16,1.82,1.82,0,0,0,.38.18,1.71,1.71,0,0,1,.36.18.5.5,0,0,1,.17.18.52.52,0,0,1,.05.25"/><path class="cls-4" d="M46.22,34.15a.7.7,0,0,1-.58-.27,1.49,1.49,0,0,1,0-1.52.7.7,0,0,1,.59-.27.69.69,0,0,1,.6.29h0a2.5,2.5,0,0,1,0-.34V31.3h.43v2.81h-.33l-.07-.26h0a.68.68,0,0,1-.6.3m.11-.34a.46.46,0,0,0,.38-.15.77.77,0,0,0,.12-.48v-.06a.89.89,0,0,0-.12-.54.46.46,0,0,0-.38-.16.39.39,0,0,0-.34.18.93.93,0,0,0-.12.52.91.91,0,0,0,.12.51.4.4,0,0,0,.35.17"/><path class="cls-4" d="M48.61,34.15a1,1,0,0,1-.73-.27,1,1,0,0,1-.26-.75,1.13,1.13,0,0,1,.24-.77.84.84,0,0,1,.67-.28.83.83,0,0,1,.62.24.92.92,0,0,1,.23.66v.23H48.06a.65.65,0,0,0,.16.45.55.55,0,0,0,.42.16,1.55,1.55,0,0,0,.33,0,1.7,1.7,0,0,0,.33-.11V34a1.32,1.32,0,0,1-.31.1,1.92,1.92,0,0,1-.36,0m-.08-1.75a.43.43,0,0,0-.32.13.61.61,0,0,0-.15.37H49a.55.55,0,0,0-.12-.38.41.41,0,0,0-.32-.13"/><path class="cls-4" d="M52.16,31.47h.45l-.92,2.64h-.45l-.92-2.64h.44l.55,1.64c0,.08.06.18.09.3s.05.22.06.28c0-.09,0-.2.07-.32l.08-.27Z"/><path class="cls-4" d="M52.77,31.59a.21.21,0,0,1,.24-.24.21.21,0,0,1,.24.24.23.23,0,0,1-.06.17.23.23,0,0,1-.17.06.24.24,0,0,1-.18-.06.23.23,0,0,1-.06-.17m.45,2.53H52.8v-2h.43Z"/><path class="cls-4" d="M55.06,33.54a.53.53,0,0,1-.21.45,1,1,0,0,1-.61.16,1.45,1.45,0,0,1-.64-.12v-.37a1.57,1.57,0,0,0,.66.16c.26,0,.39-.08.39-.24a.19.19,0,0,0,0-.13.57.57,0,0,0-.14-.1l-.28-.12a1.25,1.25,0,0,1-.47-.27.5.5,0,0,1-.12-.35.45.45,0,0,1,.21-.4,1,1,0,0,1,.56-.14,1.6,1.6,0,0,1,.67.14l-.14.32a1.5,1.5,0,0,0-.54-.13c-.22,0-.34.06-.34.19a.19.19,0,0,0,.09.16,1.83,1.83,0,0,0,.38.18,1.74,1.74,0,0,1,.36.18.51.51,0,0,1,.17.18.54.54,0,0,1,.05.25"/><path class="cls-4" d="M56.65,34.11l-.08-.28h0a.82.82,0,0,1-.29.25.94.94,0,0,1-.38.07.63.63,0,0,1-.46-.16.6.6,0,0,1-.17-.45.53.53,0,0,1,.23-.47,1.31,1.31,0,0,1,.7-.17h.34v-.11a.4.4,0,0,0-.09-.29.37.37,0,0,0-.28-.09,1,1,0,0,0-.29,0l-.27.11-.14-.3a1.5,1.5,0,0,1,.36-.13,1.61,1.61,0,0,1,.36,0,.87.87,0,0,1,.58.17.66.66,0,0,1,.19.52v1.35Zm-.2-2.24a.36.36,0,0,1-.15,0l-.14-.07L56,31.7a.31.31,0,0,0-.13,0c-.1,0-.16.07-.2.21h-.22a.64.64,0,0,1,.14-.38.39.39,0,0,1,.3-.13.37.37,0,0,1,.15,0l.14.07.14.07a.3.3,0,0,0,.13,0c.09,0,.16-.07.19-.21h.23a.66.66,0,0,1-.14.38.38.38,0,0,1-.31.14m-.43,2a.53.53,0,0,0,.37-.13.47.47,0,0,0,.14-.36v-.17h-.26a.88.88,0,0,0-.44.1.3.3,0,0,0-.14.27.27.27,0,0,0,.08.21.34.34,0,0,0,.24.07"/><path class="cls-4" d="M59.21,33.11a1.09,1.09,0,0,1-.25.76.9.9,0,0,1-.7.28,1,1,0,0,1-.49-.13.85.85,0,0,1-.33-.36,1.24,1.24,0,0,1-.12-.55,1.07,1.07,0,0,1,.25-.76.9.9,0,0,1,.7-.27.88.88,0,0,1,.69.28,1.08,1.08,0,0,1,.25.75m-1.45,0q0,.69.51.69t.51-.69q0-.68-.51-.68a.43.43,0,0,0-.39.18.9.9,0,0,0-.12.51"/><path class="cls-4" d="M61.31,34.15a1,1,0,0,1-.73-.27,1,1,0,0,1-.26-.75,1.14,1.14,0,0,1,.24-.77.84.84,0,0,1,.67-.28.82.82,0,0,1,.62.24.92.92,0,0,1,.23.66v.23H60.75a.66.66,0,0,0,.16.45.55.55,0,0,0,.42.16,1.55,1.55,0,0,0,.33,0,1.68,1.68,0,0,0,.33-.11V34a1.31,1.31,0,0,1-.31.1,1.92,1.92,0,0,1-.36,0m-.08-1.75a.43.43,0,0,0-.32.13.61.61,0,0,0-.15.37h.91a.56.56,0,0,0-.12-.38.41.41,0,0,0-.32-.13"/><rect class="cls-4" x="63.35" y="31.47" width="0.43" height="2.64"/><path class="cls-4" d="M66.08,34.11h-.43V32.88a.53.53,0,0,0-.09-.35.36.36,0,0,0-.3-.11.47.47,0,0,0-.39.16.88.88,0,0,0-.12.53v1h-.42v-2h.33l.06.26h0a.6.6,0,0,1,.26-.22.88.88,0,0,1,.37-.08.64.64,0,0,1,.72.73Z"/><path class="cls-4" d="M67.3,33.8a1,1,0,0,0,.31,0v.32l-.18.05-.23,0c-.4,0-.6-.21-.6-.64V32.44h-.27v-.19l.29-.16.15-.42H67v.44h.57v.32H67V33.5a.3.3,0,0,0,.08.23.28.28,0,0,0,.2.07"/><path class="cls-4" d="M68.77,34.15a1,1,0,0,1-.73-.27,1,1,0,0,1-.26-.75,1.13,1.13,0,0,1,.24-.77.84.84,0,0,1,.67-.28.83.83,0,0,1,.62.24.92.92,0,0,1,.23.66v.23H68.22a.66.66,0,0,0,.16.45.55.55,0,0,0,.42.16,1.55,1.55,0,0,0,.33,0,1.72,1.72,0,0,0,.33-.11V34a1.33,1.33,0,0,1-.31.1,1.91,1.91,0,0,1-.36,0M68.7,32.4a.42.42,0,0,0-.32.13.61.61,0,0,0-.15.37h.91a.56.56,0,0,0-.12-.38.41.41,0,0,0-.32-.13"/><rect class="cls-4" x="69.92" y="31.3" width="0.43" height="2.81"/><path class="cls-4" d="M70.82,31.59a.24.24,0,0,1,.06-.18.24.24,0,0,1,.18-.06.21.21,0,0,1,.24.24.23.23,0,0,1-.06.17.23.23,0,0,1-.17.06.24.24,0,0,1-.18-.06.23.23,0,0,1-.06-.17m.45,2.53h-.43v-2h.43Z"/><path class="cls-4" d="M73.45,32.11v.23l-.34.06a.6.6,0,0,1,.08.16.61.61,0,0,1,0,.2.6.6,0,0,1-.21.49.9.9,0,0,1-.59.18l-.17,0a.24.24,0,0,0-.14.2.11.11,0,0,0,.06.1.54.54,0,0,0,.24,0h.35a.77.77,0,0,1,.5.14.49.49,0,0,1,.17.41.59.59,0,0,1-.28.52,1.48,1.48,0,0,1-.81.18,1.12,1.12,0,0,1-.62-.15.47.47,0,0,1-.22-.41.44.44,0,0,1,.12-.31.63.63,0,0,1,.33-.18.31.31,0,0,1-.14-.12.29.29,0,0,1-.06-.17.29.29,0,0,1,.06-.19.72.72,0,0,1,.19-.15.55.55,0,0,1-.25-.22.63.63,0,0,1-.1-.35.63.63,0,0,1,.21-.5.86.86,0,0,1,.58-.18h.18l.14,0Zm-1.57,2.31a.23.23,0,0,0,.12.21.67.67,0,0,0,.35.07,1,1,0,0,0,.52-.1.3.3,0,0,0,.17-.26.2.2,0,0,0-.09-.18.75.75,0,0,0-.35-.06h-.32a.45.45,0,0,0-.29.09.29.29,0,0,0-.11.23m.18-1.66a.4.4,0,0,0,.1.29.37.37,0,0,0,.28.1c.25,0,.37-.13.37-.39a.44.44,0,0,0-.09-.3.34.34,0,0,0-.28-.11.35.35,0,0,0-.28.11.43.43,0,0,0-.09.3"/><path class="cls-4" d="M74.58,34.15a1,1,0,0,1-.73-.27,1,1,0,0,1-.26-.75,1.14,1.14,0,0,1,.24-.77.84.84,0,0,1,.67-.28.83.83,0,0,1,.62.24.92.92,0,0,1,.23.66v.23H74a.66.66,0,0,0,.16.45.55.55,0,0,0,.42.16,1.55,1.55,0,0,0,.33,0,1.7,1.7,0,0,0,.33-.11V34a1.32,1.32,0,0,1-.31.1,1.92,1.92,0,0,1-.36,0m.34-2.28a2,2,0,0,1-.41-.33,2.28,2.28,0,0,1-.41.33h-.28v0a3.56,3.56,0,0,0,.46-.55h.47a3.07,3.07,0,0,0,.46.55v0Zm-.41.53a.43.43,0,0,0-.32.13.61.61,0,0,0-.15.37h.91a.56.56,0,0,0-.12-.38.41.41,0,0,0-.32-.13"/><path class="cls-4" d="M77.48,34.11h-.43V32.88a.53.53,0,0,0-.09-.35.36.36,0,0,0-.3-.11.47.47,0,0,0-.39.16.87.87,0,0,0-.13.53v1h-.42v-2h.33l.06.26h0a.59.59,0,0,1,.26-.22.88.88,0,0,1,.37-.08.64.64,0,0,1,.72.73Z"/><path class="cls-4" d="M78.77,34.15a.87.87,0,0,1-.69-.27,1.34,1.34,0,0,1,0-1.53.92.92,0,0,1,.71-.27,1.32,1.32,0,0,1,.57.12l-.13.34a1.25,1.25,0,0,0-.44-.1c-.35,0-.52.23-.52.69a.82.82,0,0,0,.13.5.44.44,0,0,0,.38.17,1.09,1.09,0,0,0,.54-.14V34a.79.79,0,0,1-.24.1,1.46,1.46,0,0,1-.31,0"/><path class="cls-4" d="M79.66,31.59a.24.24,0,0,1,.06-.18.24.24,0,0,1,.18-.06.24.24,0,0,1,.17.06.24.24,0,0,1,.06.18.23.23,0,0,1-.06.17.24.24,0,0,1-.17.06.24.24,0,0,1-.18-.06.23.23,0,0,1-.06-.17m.45,2.53h-.42v-2h.42Z"/><path class="cls-4" d="M81.85,34.11l-.09-.28h0a.83.83,0,0,1-.29.25.94.94,0,0,1-.38.07.63.63,0,0,1-.46-.16.6.6,0,0,1-.17-.45.53.53,0,0,1,.23-.47,1.31,1.31,0,0,1,.7-.17h.34v-.11a.4.4,0,0,0-.09-.29.36.36,0,0,0-.28-.09,1,1,0,0,0-.29,0l-.27.11-.14-.3a1.48,1.48,0,0,1,.36-.13,1.61,1.61,0,0,1,.36,0,.87.87,0,0,1,.58.17.66.66,0,0,1,.19.52v1.35Zm-.63-.29a.53.53,0,0,0,.37-.13.47.47,0,0,0,.14-.36v-.17h-.26a.88.88,0,0,0-.44.1.3.3,0,0,0-.14.27.27.27,0,0,0,.08.21.34.34,0,0,0,.24.07"/><path class="cls-4" d="M85.17,34.11l-.26-.73h-1l-.26.73h-.46l1-2.65h.47l1,2.65ZM84.79,33l-.25-.72-.07-.23-.07-.23a3.88,3.88,0,0,1-.14.49L84,33Z"/><path class="cls-4" d="M86.83,32.08l.21,0,0,.4-.19,0a.54.54,0,0,0-.41.17.6.6,0,0,0-.16.43v1h-.42v-2h.33l.06.35h0a.81.81,0,0,1,.26-.28.62.62,0,0,1,.34-.1"/><path class="cls-4" d="M88,33.8a1,1,0,0,0,.31,0v.32l-.18.05-.23,0q-.6,0-.6-.64V32.44h-.27v-.19l.29-.16.15-.42h.26v.44h.57v.32h-.57V33.5a.3.3,0,0,0,.08.23.28.28,0,0,0,.2.07"/><path class="cls-4" d="M88.62,31.59a.21.21,0,0,1,.24-.24.21.21,0,0,1,.24.24.23.23,0,0,1-.06.17.23.23,0,0,1-.17.06.24.24,0,0,1-.18-.06.23.23,0,0,1-.06-.17m.45,2.53h-.43v-2h.43Z"/><path class="cls-4" d="M90.57,32.44h-.49v1.68h-.43V32.44h-.33v-.2l.33-.13V32a.73.73,0,0,1,.17-.53.68.68,0,0,1,.51-.17,1.37,1.37,0,0,1,.44.07l-.11.32a1,1,0,0,0-.3-.05.25.25,0,0,0-.21.09.46.46,0,0,0-.07.27v.13h.49Zm.31-.85a.24.24,0,0,1,.06-.18.24.24,0,0,1,.18-.06.21.21,0,0,1,.24.24.23.23,0,0,1-.06.17.24.24,0,0,1-.17.06.24.24,0,0,1-.18-.06.23.23,0,0,1-.06-.17m.45,2.53h-.42v-2h.42Z"/><path class="cls-4" d="M92.64,34.15a.87.87,0,0,1-.69-.27,1.34,1.34,0,0,1,0-1.53.91.91,0,0,1,.71-.27,1.33,1.33,0,0,1,.57.12l-.13.34a1.25,1.25,0,0,0-.44-.1c-.35,0-.52.23-.52.69a.82.82,0,0,0,.13.5.44.44,0,0,0,.38.17,1.09,1.09,0,0,0,.54-.14V34a.79.79,0,0,1-.24.1,1.47,1.47,0,0,1-.31,0"/><path class="cls-4" d="M93.52,31.59a.24.24,0,0,1,.06-.18.24.24,0,0,1,.18-.06.21.21,0,0,1,.24.24.23.23,0,0,1-.06.17.24.24,0,0,1-.18.06.24.24,0,0,1-.18-.06.23.23,0,0,1-.06-.17M94,34.11h-.42v-2H94Z"/><path class="cls-4" d="M95.72,34.11l-.08-.28h0a.83.83,0,0,1-.29.25.94.94,0,0,1-.38.07.63.63,0,0,1-.46-.16.59.59,0,0,1-.17-.45.53.53,0,0,1,.23-.47,1.31,1.31,0,0,1,.7-.17h.34v-.11a.4.4,0,0,0-.09-.29.36.36,0,0,0-.28-.09,1,1,0,0,0-.29,0l-.27.11-.14-.3a1.49,1.49,0,0,1,.35-.13,1.62,1.62,0,0,1,.37,0,.87.87,0,0,1,.58.17.65.65,0,0,1,.19.52v1.35Zm-.63-.29a.53.53,0,0,0,.37-.13.48.48,0,0,0,.14-.36v-.17h-.26a.88.88,0,0,0-.44.1.3.3,0,0,0-.14.27.27.27,0,0,0,.08.21.34.34,0,0,0,.24.07"/><rect class="cls-4" x="96.5" y="31.3" width="0.43" height="2.81"/></g></svg>